<mxfile host="app.diagrams.net" modified="2022-04-05T07:20:02.578Z" agent="5.0 (Macintosh; Intel Mac OS X 10_15_7) AppleWebKit/605.1.15 (KHTML, like Gecko) Version/15.3 Safari/605.1.15" etag="l5Bq_RBPgCiRi-5C-bFf" version="17.4.0" type="github">
  <diagram id="lq0eT0aVpltnqIhbc246" name="Page-1">
    <mxGraphModel dx="786" dy="545" grid="1" gridSize="10" guides="1" tooltips="1" connect="1" arrows="1" fold="1" page="1" pageScale="1" pageWidth="827" pageHeight="1169" math="0" shadow="0">
      <root>
        <mxCell id="0" />
        <mxCell id="1" parent="0" />
        <mxCell id="vgubdLYI7SiRzni6n6n7-1" value="" style="rounded=1;whiteSpace=wrap;html=1;fillColor=#e1d5e7;strokeColor=#9673a6;" vertex="1" parent="1">
          <mxGeometry x="180" y="160" width="400" height="210" as="geometry" />
        </mxCell>
        <mxCell id="vgubdLYI7SiRzni6n6n7-5" value="&lt;span&gt;&lt;b&gt;Spatial Encryption&lt;/b&gt;&lt;/span&gt;" style="text;html=1;align=center;verticalAlign=middle;resizable=0;points=[];autosize=1;strokeColor=none;fillColor=none;" vertex="1" parent="1">
          <mxGeometry x="445" y="160" width="120" height="20" as="geometry" />
        </mxCell>
        <mxCell id="vgubdLYI7SiRzni6n6n7-6" value="" style="rounded=1;whiteSpace=wrap;html=1;fillColor=#dae8fc;strokeColor=#6c8ebf;" vertex="1" parent="1">
          <mxGeometry x="200" y="200" width="320" height="160" as="geometry" />
        </mxCell>
        <mxCell id="vgubdLYI7SiRzni6n6n7-7" value="&lt;b&gt;Allow/Deny-llist Encryption&lt;/b&gt;" style="text;html=1;align=center;verticalAlign=middle;resizable=0;points=[];autosize=1;strokeColor=none;fillColor=none;" vertex="1" parent="1">
          <mxGeometry x="340" y="200" width="170" height="20" as="geometry" />
        </mxCell>
        <mxCell id="vgubdLYI7SiRzni6n6n7-2" value="" style="rounded=1;whiteSpace=wrap;html=1;fillColor=#d5e8d4;strokeColor=#82b366;" vertex="1" parent="1">
          <mxGeometry x="220" y="240" width="200" height="110" as="geometry" />
        </mxCell>
        <mxCell id="vgubdLYI7SiRzni6n6n7-8" value="&lt;b&gt;Forward&amp;nbsp;&lt;br&gt;Security&lt;/b&gt;" style="rhombus;whiteSpace=wrap;html=1;fillColor=#fff2cc;strokeColor=#d6b656;" vertex="1" parent="1">
          <mxGeometry x="250" y="270" width="80" height="80" as="geometry" />
        </mxCell>
        <mxCell id="vgubdLYI7SiRzni6n6n7-9" value="&lt;span&gt;&lt;b&gt;Puncturable &amp;nbsp;Encryption&lt;/b&gt;&lt;/span&gt;" style="text;html=1;align=center;verticalAlign=middle;resizable=0;points=[];autosize=1;strokeColor=none;fillColor=none;" vertex="1" parent="1">
          <mxGeometry x="269" y="240" width="150" height="20" as="geometry" />
        </mxCell>
      </root>
    </mxGraphModel>
  </diagram>
</mxfile>
